<mxfile host="app.diagrams.net" modified="2023-08-16T16:59:49.694Z" agent="Mozilla/5.0 (Macintosh; Intel Mac OS X 10_15_7) AppleWebKit/537.36 (KHTML, like Gecko) Chrome/114.0.0.0 Safari/537.36" etag="33RpUUBY88SoXXjSP-7l" version="21.6.8" type="github" pages="2">
  <diagram name="Current Architecture" id="-JPuS-_Eib0aC4rEOsTi">
    <mxGraphModel dx="1012" dy="643" grid="1" gridSize="10" guides="1" tooltips="1" connect="1" arrows="1" fold="1" page="1" pageScale="1" pageWidth="850" pageHeight="1100" math="0" shadow="0">
      <root>
        <mxCell id="0" />
        <mxCell id="1" parent="0" />
        <mxCell id="6dTIfH8hTpsJ-1EWzCQs-1" style="edgeStyle=orthogonalEdgeStyle;rounded=0;orthogonalLoop=1;jettySize=auto;html=1;entryX=0.5;entryY=0;entryDx=0;entryDy=0;" parent="1" source="ZFk9QuI-Hcgdrmsdoadk-18" target="ZFk9QuI-Hcgdrmsdoadk-5" edge="1">
          <mxGeometry relative="1" as="geometry" />
        </mxCell>
        <mxCell id="ZFk9QuI-Hcgdrmsdoadk-18" value="" style="verticalLabelPosition=bottom;verticalAlign=top;html=1;shape=mxgraph.basic.rect;fillColor2=none;strokeWidth=1;size=20;indent=5;fillColor=#f8cecc;strokeColor=#b85450;" parent="1" vertex="1">
          <mxGeometry x="170" y="320" width="510" height="260" as="geometry" />
        </mxCell>
        <mxCell id="ZFk9QuI-Hcgdrmsdoadk-2" value="Users" style="ellipse;whiteSpace=wrap;html=1;strokeWidth=2;fillColor=#f8cecc;strokeColor=#b85450;" parent="1" vertex="1">
          <mxGeometry x="390" y="240" width="70" height="50" as="geometry" />
        </mxCell>
        <mxCell id="ZFk9QuI-Hcgdrmsdoadk-5" value="grpc-gateway&lt;br&gt;(port 8080)" style="whiteSpace=wrap;html=1;aspect=fixed;fillColor=#f8cecc;strokeColor=#b85450;strokeWidth=2;" parent="1" vertex="1">
          <mxGeometry x="381" y="350" width="90" height="90" as="geometry" />
        </mxCell>
        <mxCell id="ZFk9QuI-Hcgdrmsdoadk-7" value="Topic Service" style="rounded=1;whiteSpace=wrap;html=1;fillColor=#f8cecc;strokeColor=#b85450;strokeWidth=2;" parent="1" vertex="1">
          <mxGeometry x="268" y="490" width="120" height="60" as="geometry" />
        </mxCell>
        <mxCell id="ZFk9QuI-Hcgdrmsdoadk-8" value="Message Service" style="rounded=1;whiteSpace=wrap;html=1;fillColor=#f8cecc;strokeColor=#b85450;strokeWidth=2;" parent="1" vertex="1">
          <mxGeometry x="450" y="490" width="120" height="60" as="geometry" />
        </mxCell>
        <mxCell id="ZFk9QuI-Hcgdrmsdoadk-9" value="" style="endArrow=classic;html=1;rounded=0;exitX=0.5;exitY=1;exitDx=0;exitDy=0;entryX=0.5;entryY=0;entryDx=0;entryDy=0;strokeColor=#A62828;strokeWidth=2;fillColor=#e1d5e7;" parent="1" source="ZFk9QuI-Hcgdrmsdoadk-5" target="ZFk9QuI-Hcgdrmsdoadk-7" edge="1">
          <mxGeometry width="50" height="50" relative="1" as="geometry">
            <mxPoint x="550" y="470" as="sourcePoint" />
            <mxPoint x="600" y="420" as="targetPoint" />
          </mxGeometry>
        </mxCell>
        <mxCell id="ZFk9QuI-Hcgdrmsdoadk-10" value="" style="endArrow=classic;html=1;rounded=0;exitX=0.5;exitY=1;exitDx=0;exitDy=0;entryX=0.5;entryY=0;entryDx=0;entryDy=0;strokeColor=#A62828;strokeWidth=2;fillColor=#e1d5e7;" parent="1" source="ZFk9QuI-Hcgdrmsdoadk-5" target="ZFk9QuI-Hcgdrmsdoadk-8" edge="1">
          <mxGeometry width="50" height="50" relative="1" as="geometry">
            <mxPoint x="435" y="450" as="sourcePoint" />
            <mxPoint x="330" y="500" as="targetPoint" />
          </mxGeometry>
        </mxCell>
        <mxCell id="ZFk9QuI-Hcgdrmsdoadk-11" value="" style="endArrow=classic;html=1;rounded=0;exitX=0.5;exitY=1;exitDx=0;exitDy=0;strokeColor=#A62828;strokeWidth=2;fillColor=#e1d5e7;entryX=0.5;entryY=0;entryDx=0;entryDy=0;" parent="1" source="ZFk9QuI-Hcgdrmsdoadk-8" target="ZFk9QuI-Hcgdrmsdoadk-17" edge="1">
          <mxGeometry width="50" height="50" relative="1" as="geometry">
            <mxPoint x="160" y="650" as="sourcePoint" />
            <mxPoint x="420" y="600" as="targetPoint" />
          </mxGeometry>
        </mxCell>
        <mxCell id="ZFk9QuI-Hcgdrmsdoadk-12" value="" style="endArrow=classic;html=1;rounded=0;exitX=0.5;exitY=1;exitDx=0;exitDy=0;strokeColor=#A62828;strokeWidth=2;fillColor=#e1d5e7;entryX=0.5;entryY=0;entryDx=0;entryDy=0;" parent="1" source="ZFk9QuI-Hcgdrmsdoadk-7" target="ZFk9QuI-Hcgdrmsdoadk-17" edge="1">
          <mxGeometry width="50" height="50" relative="1" as="geometry">
            <mxPoint x="220" y="630" as="sourcePoint" />
            <mxPoint x="420" y="600" as="targetPoint" />
          </mxGeometry>
        </mxCell>
        <mxCell id="ZFk9QuI-Hcgdrmsdoadk-13" value="/v1/topics" style="text;html=1;align=center;verticalAlign=middle;resizable=0;points=[];autosize=1;strokeColor=#A62828;fillColor=#e1d5e7;strokeWidth=0;" parent="1" vertex="1">
          <mxGeometry x="286" y="442" width="70" height="30" as="geometry" />
        </mxCell>
        <mxCell id="ZFk9QuI-Hcgdrmsdoadk-14" value="/v1/messages" style="text;html=1;align=center;verticalAlign=middle;resizable=0;points=[];autosize=1;strokeColor=#A62828;fillColor=#e1d5e7;strokeWidth=0;" parent="1" vertex="1">
          <mxGeometry x="486" y="443" width="100" height="30" as="geometry" />
        </mxCell>
        <mxCell id="ZFk9QuI-Hcgdrmsdoadk-16" value="" style="endArrow=classic;html=1;rounded=0;exitX=0.5;exitY=1;exitDx=0;exitDy=0;entryX=0.5;entryY=0;entryDx=0;entryDy=0;strokeColor=#A62828;strokeWidth=2;fillColor=#e1d5e7;" parent="1" source="ZFk9QuI-Hcgdrmsdoadk-2" target="ZFk9QuI-Hcgdrmsdoadk-5" edge="1">
          <mxGeometry width="50" height="50" relative="1" as="geometry">
            <mxPoint x="70" y="480" as="sourcePoint" />
            <mxPoint x="425" y="312" as="targetPoint" />
          </mxGeometry>
        </mxCell>
        <mxCell id="ZFk9QuI-Hcgdrmsdoadk-17" value="Datastore&lt;br&gt;(Postgres)" style="shape=datastore;whiteSpace=wrap;html=1;fillColor=#f8cecc;strokeColor=#b85450;" parent="1" vertex="1">
          <mxGeometry x="365" y="610" width="115" height="100" as="geometry" />
        </mxCell>
        <mxCell id="ZFk9QuI-Hcgdrmsdoadk-19" value="OneHub Service&lt;br&gt;(cmd/server.go)" style="text;html=1;align=center;verticalAlign=middle;resizable=0;points=[];autosize=1;strokeColor=none;fillColor=none;" parent="1" vertex="1">
          <mxGeometry x="570" y="320" width="110" height="40" as="geometry" />
        </mxCell>
      </root>
    </mxGraphModel>
  </diagram>
  <diagram name="New Architecture" id="yNTU8KE3XLUba8caBVKO">
    <mxGraphModel dx="1012" dy="643" grid="1" gridSize="10" guides="1" tooltips="1" connect="1" arrows="1" fold="1" page="1" pageScale="1" pageWidth="850" pageHeight="1100" math="0" shadow="0">
      <root>
        <mxCell id="0z7UrHsTXnvzhj-5PGaQ-0" />
        <mxCell id="0z7UrHsTXnvzhj-5PGaQ-1" parent="0z7UrHsTXnvzhj-5PGaQ-0" />
        <mxCell id="0z7UrHsTXnvzhj-5PGaQ-2" value="" style="verticalLabelPosition=bottom;verticalAlign=top;html=1;shape=mxgraph.basic.rect;fillColor2=none;strokeWidth=1;size=20;indent=5;fillColor=#f8cecc;strokeColor=#b85450;" parent="0z7UrHsTXnvzhj-5PGaQ-1" vertex="1">
          <mxGeometry x="240" y="290" width="360" height="290" as="geometry" />
        </mxCell>
        <mxCell id="0z7UrHsTXnvzhj-5PGaQ-3" value="Router&lt;br&gt;????&lt;br&gt;(Port 80)" style="whiteSpace=wrap;html=1;aspect=fixed;fillColor=#f8cecc;strokeColor=#b85450;strokeWidth=2;" parent="0z7UrHsTXnvzhj-5PGaQ-1" vertex="1">
          <mxGeometry x="586" y="140" width="90" height="90" as="geometry" />
        </mxCell>
        <mxCell id="0z7UrHsTXnvzhj-5PGaQ-4" value="Users" style="ellipse;whiteSpace=wrap;html=1;strokeWidth=2;fillColor=#f8cecc;strokeColor=#b85450;" parent="0z7UrHsTXnvzhj-5PGaQ-1" vertex="1">
          <mxGeometry x="596" y="50" width="70" height="50" as="geometry" />
        </mxCell>
        <mxCell id="0z7UrHsTXnvzhj-5PGaQ-5" value="grpc-gateway&lt;br&gt;(port 8080)" style="whiteSpace=wrap;html=1;aspect=fixed;fillColor=#f8cecc;strokeColor=#b85450;strokeWidth=2;" parent="0z7UrHsTXnvzhj-5PGaQ-1" vertex="1">
          <mxGeometry x="380" y="350" width="90" height="90" as="geometry" />
        </mxCell>
        <mxCell id="0z7UrHsTXnvzhj-5PGaQ-6" value="" style="endArrow=classic;html=1;rounded=0;exitX=0.5;exitY=1;exitDx=0;exitDy=0;entryX=0.5;entryY=0;entryDx=0;entryDy=0;strokeColor=#A62828;strokeWidth=2;fillColor=#e1d5e7;" parent="0z7UrHsTXnvzhj-5PGaQ-1" source="0z7UrHsTXnvzhj-5PGaQ-3" target="0z7UrHsTXnvzhj-5PGaQ-5" edge="1">
          <mxGeometry width="50" height="50" relative="1" as="geometry">
            <mxPoint x="400" y="360" as="sourcePoint" />
            <mxPoint x="450" y="310" as="targetPoint" />
          </mxGeometry>
        </mxCell>
        <mxCell id="0z7UrHsTXnvzhj-5PGaQ-7" value="Topic Service" style="rounded=1;whiteSpace=wrap;html=1;fillColor=#f8cecc;strokeColor=#b85450;strokeWidth=2;" parent="0z7UrHsTXnvzhj-5PGaQ-1" vertex="1">
          <mxGeometry x="268" y="490" width="120" height="60" as="geometry" />
        </mxCell>
        <mxCell id="0z7UrHsTXnvzhj-5PGaQ-8" value="Message Service" style="rounded=1;whiteSpace=wrap;html=1;fillColor=#f8cecc;strokeColor=#b85450;strokeWidth=2;" parent="0z7UrHsTXnvzhj-5PGaQ-1" vertex="1">
          <mxGeometry x="450" y="490" width="120" height="60" as="geometry" />
        </mxCell>
        <mxCell id="0z7UrHsTXnvzhj-5PGaQ-9" value="" style="endArrow=classic;html=1;rounded=0;exitX=0.5;exitY=1;exitDx=0;exitDy=0;entryX=0.5;entryY=0;entryDx=0;entryDy=0;strokeColor=#A62828;strokeWidth=2;fillColor=#e1d5e7;" parent="0z7UrHsTXnvzhj-5PGaQ-1" source="0z7UrHsTXnvzhj-5PGaQ-5" target="0z7UrHsTXnvzhj-5PGaQ-7" edge="1">
          <mxGeometry width="50" height="50" relative="1" as="geometry">
            <mxPoint x="550" y="470" as="sourcePoint" />
            <mxPoint x="600" y="420" as="targetPoint" />
          </mxGeometry>
        </mxCell>
        <mxCell id="0z7UrHsTXnvzhj-5PGaQ-10" value="" style="endArrow=classic;html=1;rounded=0;exitX=0.5;exitY=1;exitDx=0;exitDy=0;entryX=0.5;entryY=0;entryDx=0;entryDy=0;strokeColor=#A62828;strokeWidth=2;fillColor=#e1d5e7;" parent="0z7UrHsTXnvzhj-5PGaQ-1" source="0z7UrHsTXnvzhj-5PGaQ-5" target="0z7UrHsTXnvzhj-5PGaQ-8" edge="1">
          <mxGeometry width="50" height="50" relative="1" as="geometry">
            <mxPoint x="435" y="450" as="sourcePoint" />
            <mxPoint x="330" y="500" as="targetPoint" />
          </mxGeometry>
        </mxCell>
        <mxCell id="0z7UrHsTXnvzhj-5PGaQ-11" value="" style="endArrow=classic;html=1;rounded=0;exitX=0.5;exitY=1;exitDx=0;exitDy=0;strokeColor=#A62828;strokeWidth=2;fillColor=#e1d5e7;entryX=0.5;entryY=0;entryDx=0;entryDy=0;" parent="0z7UrHsTXnvzhj-5PGaQ-1" source="0z7UrHsTXnvzhj-5PGaQ-8" target="0z7UrHsTXnvzhj-5PGaQ-17" edge="1">
          <mxGeometry width="50" height="50" relative="1" as="geometry">
            <mxPoint x="160" y="650" as="sourcePoint" />
            <mxPoint x="420" y="600" as="targetPoint" />
          </mxGeometry>
        </mxCell>
        <mxCell id="0z7UrHsTXnvzhj-5PGaQ-12" value="" style="endArrow=classic;html=1;rounded=0;exitX=0.5;exitY=1;exitDx=0;exitDy=0;strokeColor=#A62828;strokeWidth=2;fillColor=#e1d5e7;entryX=0.5;entryY=0;entryDx=0;entryDy=0;" parent="0z7UrHsTXnvzhj-5PGaQ-1" source="0z7UrHsTXnvzhj-5PGaQ-7" target="0z7UrHsTXnvzhj-5PGaQ-17" edge="1">
          <mxGeometry width="50" height="50" relative="1" as="geometry">
            <mxPoint x="220" y="630" as="sourcePoint" />
            <mxPoint x="420" y="600" as="targetPoint" />
          </mxGeometry>
        </mxCell>
        <mxCell id="0z7UrHsTXnvzhj-5PGaQ-13" value="/v1/topics" style="text;html=1;align=center;verticalAlign=middle;resizable=0;points=[];autosize=1;strokeColor=#A62828;fillColor=#e1d5e7;strokeWidth=0;" parent="0z7UrHsTXnvzhj-5PGaQ-1" vertex="1">
          <mxGeometry x="286" y="442" width="70" height="30" as="geometry" />
        </mxCell>
        <mxCell id="0z7UrHsTXnvzhj-5PGaQ-14" value="/v1/messages" style="text;html=1;align=center;verticalAlign=middle;resizable=0;points=[];autosize=1;strokeColor=#A62828;fillColor=#e1d5e7;strokeWidth=0;" parent="0z7UrHsTXnvzhj-5PGaQ-1" vertex="1">
          <mxGeometry x="486" y="443" width="100" height="30" as="geometry" />
        </mxCell>
        <mxCell id="0z7UrHsTXnvzhj-5PGaQ-15" value="/v1/*" style="text;html=1;align=center;verticalAlign=middle;resizable=0;points=[];autosize=1;strokeColor=#A62828;fillColor=#e1d5e7;strokeWidth=0;" parent="0z7UrHsTXnvzhj-5PGaQ-1" vertex="1">
          <mxGeometry x="432" y="301" width="50" height="30" as="geometry" />
        </mxCell>
        <mxCell id="0z7UrHsTXnvzhj-5PGaQ-16" value="" style="endArrow=classic;html=1;rounded=0;exitX=0.5;exitY=1;exitDx=0;exitDy=0;entryX=0.5;entryY=0;entryDx=0;entryDy=0;strokeColor=#A62828;strokeWidth=2;fillColor=#e1d5e7;" parent="0z7UrHsTXnvzhj-5PGaQ-1" source="0z7UrHsTXnvzhj-5PGaQ-4" target="0z7UrHsTXnvzhj-5PGaQ-3" edge="1">
          <mxGeometry width="50" height="50" relative="1" as="geometry">
            <mxPoint x="70" y="370" as="sourcePoint" />
            <mxPoint x="120" y="320" as="targetPoint" />
          </mxGeometry>
        </mxCell>
        <mxCell id="0z7UrHsTXnvzhj-5PGaQ-17" value="Datastore&lt;br&gt;(Postgres)" style="shape=datastore;whiteSpace=wrap;html=1;fillColor=#f8cecc;strokeColor=#b85450;" parent="0z7UrHsTXnvzhj-5PGaQ-1" vertex="1">
          <mxGeometry x="365" y="610" width="115" height="100" as="geometry" />
        </mxCell>
        <mxCell id="0z7UrHsTXnvzhj-5PGaQ-18" value="OneHub Service&lt;br&gt;(cmd/server.go)" style="text;html=1;align=center;verticalAlign=middle;resizable=0;points=[];autosize=1;strokeColor=none;fillColor=none;" parent="0z7UrHsTXnvzhj-5PGaQ-1" vertex="1">
          <mxGeometry x="246" y="291" width="110" height="40" as="geometry" />
        </mxCell>
        <mxCell id="8qNKQKcETZL-HLPWV8Y--0" value="FrontEnd Service&lt;br&gt;(eg NextJS App - Port 4000)&lt;br&gt;&lt;br&gt;* Serving static assets (css, js, png)&lt;br&gt;* Server Side Rendering&lt;br&gt;* Auth Flows, etc" style="whiteSpace=wrap;html=1;aspect=fixed;fillColor=#f8cecc;strokeColor=#b85450;strokeWidth=2;" parent="0z7UrHsTXnvzhj-5PGaQ-1" vertex="1">
          <mxGeometry x="720" y="290" width="210" height="210" as="geometry" />
        </mxCell>
        <mxCell id="8qNKQKcETZL-HLPWV8Y--1" value="" style="endArrow=classic;html=1;rounded=0;exitX=0.5;exitY=1;exitDx=0;exitDy=0;entryX=0.5;entryY=0;entryDx=0;entryDy=0;strokeColor=#A62828;strokeWidth=2;fillColor=#e1d5e7;" parent="0z7UrHsTXnvzhj-5PGaQ-1" source="0z7UrHsTXnvzhj-5PGaQ-3" target="8qNKQKcETZL-HLPWV8Y--0" edge="1">
          <mxGeometry width="50" height="50" relative="1" as="geometry">
            <mxPoint x="641" y="262" as="sourcePoint" />
            <mxPoint x="435" y="360" as="targetPoint" />
          </mxGeometry>
        </mxCell>
        <mxCell id="8qNKQKcETZL-HLPWV8Y--2" value="" style="endArrow=classic;html=1;rounded=0;exitX=0;exitY=0.5;exitDx=0;exitDy=0;entryX=1;entryY=0.5;entryDx=0;entryDy=0;strokeColor=#A62828;strokeWidth=2;fillColor=#e1d5e7;" parent="0z7UrHsTXnvzhj-5PGaQ-1" source="8qNKQKcETZL-HLPWV8Y--0" target="0z7UrHsTXnvzhj-5PGaQ-5" edge="1">
          <mxGeometry width="50" height="50" relative="1" as="geometry">
            <mxPoint x="641" y="262" as="sourcePoint" />
            <mxPoint x="795" y="306" as="targetPoint" />
          </mxGeometry>
        </mxCell>
        <mxCell id="8qNKQKcETZL-HLPWV8Y--3" value="API Calls (AJAX)" style="edgeLabel;html=1;align=center;verticalAlign=middle;resizable=0;points=[];" parent="8qNKQKcETZL-HLPWV8Y--2" vertex="1" connectable="0">
          <mxGeometry x="-0.0574" y="-3" relative="1" as="geometry">
            <mxPoint x="23" as="offset" />
          </mxGeometry>
        </mxCell>
      </root>
    </mxGraphModel>
  </diagram>
</mxfile>
